<svg width="1600" height="1600" viewBox="0 0 1600 1600" fill="none" xmlns="http://www.w3.org/2000/svg">
<g clip-path="url(#clip0_2076_2)">
<path fill-rule="evenodd" clip-rule="evenodd" d="M1600 800C1600 1241.83 1241.83 1600 800 1600C725.88 1600 654.115 1589.92 586 1571.06V1253.29C759.017 1334.11 961.788 1302.98 1111.16 1184.35L1111.05 1184.14C1133 1171.39 1138.96 1140.58 1124.34 1115.27C1109.71 1089.92 1079.98 1079.68 1057.96 1092.4C1054.07 1094.64 1050.69 1097.45 1047.82 1100.69C920.455 1196.5 747.994 1214.95 606.946 1133.52C465.858 1052.06 395.602 893.414 414.951 735.159C415.574 732.532 415.938 729.822 416.021 727.052C416.123 726.33 416.228 725.609 416.333 724.888L416.029 724.888C415.452 699.886 391.949 679.773 363.04 679.773C333.768 679.773 310.04 700.393 310.04 725.829C310.04 726.372 310.05 726.913 310.072 727.452C285.974 901.212 348.588 1076.43 482 1187.35V1534.3C198.387 1411.31 0 1128.82 0 800C0 358.172 358.172 0 800 0C1241.83 0 1600 358.172 1600 800ZM1064.97 892.197L968.84 836.697C942.534 821.51 908.897 830.523 893.709 856.829C878.521 883.135 887.534 916.772 913.84 931.96L1006.43 985.416C924.107 1082.85 778.193 1108.83 660.013 1040.6C541.833 972.37 491.379 833.013 534.597 713.004L627.186 766.46C653.492 781.648 687.129 772.635 702.317 746.329C717.505 720.023 708.492 686.385 682.186 671.197L586.057 615.697L642.557 517.837L738.686 573.337C764.992 588.524 798.629 579.511 813.817 553.205C829.005 526.899 819.992 493.262 793.686 478.074L700.503 424.274C782.324 324.283 930.081 297.014 1049.51 365.968C1168.95 434.922 1219.21 576.518 1173.52 697.373L1080.34 643.574C1054.03 628.386 1020.4 637.399 1005.21 663.705C990.021 690.011 999.034 723.649 1025.34 738.837L1121.47 794.337L1064.97 892.197Z" fill="white"/>
</g>
<defs>
<clipPath id="clip0_2076_2">
<rect width="1600" height="1600" fill="white"/>
</clipPath>
</defs>
</svg>
