<svg xmlns="http://www.w3.org/2000/svg" xmlns:xlink="http://www.w3.org/1999/xlink" width="500" zoomAndPan="magnify" viewBox="0 0 375 374.999991" height="500" preserveAspectRatio="xMidYMid meet" version="1.0"><defs><clipPath id="5a2d4769ce"><path d="M 0 293 L 375 293 L 375 374.90625 L 0 374.90625 Z M 0 293 " clip-rule="nonzero"/></clipPath></defs><rect x="-37.5" width="450" fill="#ffffff" y="-37.499999" height="449.999989" fill-opacity="1"/><rect x="-37.5" width="450" fill="#f0f0f0" y="-37.499999" height="449.999989" fill-opacity="1"/><g clip-path="url(#5a2d4769ce)"><path fill="#8f8f8f" d="M 139.84375 293.800781 C 139.84375 293.800781 112.261719 299.800781 95.109375 307.722656 C 77.953125 315.640625 37.21875 316.953125 27.234375 327.511719 C 17.253906 338.070312 0 374.546875 0 374.546875 L 375.09375 374.546875 C 375.09375 374.546875 357.84375 338.070312 347.863281 327.511719 C 337.878906 316.953125 297.140625 315.640625 279.984375 307.722656 C 262.832031 299.800781 235.257812 293.800781 235.257812 293.800781 C 235.257812 293.800781 217.203125 314.855469 187.546875 314.855469 C 157.890625 314.855469 139.84375 293.800781 139.84375 293.800781 Z M 139.84375 293.800781 " fill-opacity="1" fill-rule="nonzero"/></g><path fill="#ffffff" d="M 145.609375 250.3125 C 143.515625 268.773438 141.203125 288.183594 138.726562 297.851562 C 138.726562 297.851562 146.300781 316.773438 187.546875 316.773438 C 228.792969 316.773438 236.375 297.851562 236.375 297.851562 C 233.894531 288.183594 231.582031 268.773438 229.488281 250.3125 L 187.546875 262.195312 Z M 145.609375 250.3125 " fill-opacity="1" fill-rule="nonzero"/><path fill="#dadada" d="M 144.75 257.820312 L 143.582031 267.558594 C 143.582031 267.558594 167.515625 292.5625 187.550781 292.5625 C 207.582031 292.5625 231.519531 267.558594 231.519531 267.558594 L 230.351562 257.820312 L 187.550781 271.457031 L 144.753906 257.820312 Z M 144.75 257.820312 " fill-opacity="1" fill-rule="nonzero"/><path fill="#ffffff" d="M 187.546875 59.96875 C 155.941406 59.96875 129.421875 73.496094 120.515625 86.027344 C 111.609375 98.5625 109.628906 130.5625 114.246094 163.21875 C 110.949219 154.3125 98.082031 154.316406 95.773438 160.253906 C 93.464844 166.191406 100.0625 197.203125 105.339844 201.160156 C 110.617188 205.121094 117.875 203.46875 117.875 203.46875 C 117.875 203.46875 122.820312 235.136719 126.449219 242.726562 C 130.078125 250.3125 147.234375 259.21875 159.773438 266.476562 C 169.988281 272.390625 182 275.679688 186.097656 276.691406 C 187.058594 276.929688 188.035156 276.929688 188.996094 276.691406 C 193.09375 275.679688 205.109375 272.390625 215.328125 266.476562 C 227.863281 259.21875 245.015625 250.3125 248.644531 242.726562 C 252.273438 235.136719 257.226562 203.46875 257.226562 203.46875 C 257.226562 203.46875 264.480469 205.121094 269.757812 201.160156 C 275.035156 197.203125 281.636719 166.191406 279.324219 160.253906 C 277.015625 154.316406 264.152344 154.3125 260.851562 163.21875 C 265.46875 130.558594 263.492188 98.5625 254.582031 86.027344 C 245.675781 73.492188 219.152344 59.96875 187.546875 59.96875 Z M 187.546875 59.96875 " fill-opacity="1" fill-rule="nonzero"/><path fill="#8f8f8f" d="M 101.097656 119.425781 C 101.097656 119.425781 103.429688 149.28125 104.363281 152.550781 C 105.296875 155.816406 116.960938 171.214844 116.960938 171.214844 C 116.960938 171.214844 115.09375 139.953125 116.960938 136.222656 C 118.828125 132.488281 126.757812 124.558594 126.757812 124.558594 L 122.09375 137.621094 C 122.09375 137.621094 139.824219 130.621094 154.285156 129.222656 C 168.75 127.824219 182.746094 131.554688 203.738281 128.757812 C 224.734375 125.957031 240.132812 116.628906 240.132812 116.628906 L 229.867188 128.289062 C 229.867188 128.289062 242.464844 126.890625 247.597656 119.894531 C 244.332031 141.351562 255.992188 162.816406 254.59375 174.945312 C 259.257812 165.613281 266.257812 158.148438 269.058594 154.414062 C 271.859375 150.679688 273.257812 94.230469 271.390625 89.097656 C 269.523438 83.964844 265.792969 79.300781 265.792969 79.300781 L 273.257812 77.4375 L 261.125 74.171875 L 260.660156 57.839844 L 252.261719 69.972656 C 252.261719 69.972656 240.597656 57.375 221.9375 52.242188 C 203.273438 47.109375 160.347656 46.640625 149.621094 49.910156 C 138.890625 53.175781 125.359375 61.574219 125.359375 61.574219 C 125.359375 61.574219 145.890625 58.773438 144.023438 58.773438 C 142.15625 58.773438 97.367188 70.4375 101.097656 119.425781 Z M 101.097656 119.425781 " fill-opacity="1" fill-rule="nonzero"/></svg>