<svg xmlns="http://www.w3.org/2000/svg" xmlns:xlink="http://www.w3.org/1999/xlink" width="500" zoomAndPan="magnify" viewBox="0 0 375 374.999991" height="500" preserveAspectRatio="xMidYMid meet" version="1.0"><defs><clipPath id="ade5c948be"><path d="M 12.203125 227 L 362.453125 227 L 362.453125 375 L 12.203125 375 Z M 12.203125 227 " clip-rule="nonzero"/></clipPath><clipPath id="29a644ef83"><path d="M 108 45.800781 L 267 45.800781 L 267 203 L 108 203 Z M 108 45.800781 " clip-rule="nonzero"/></clipPath></defs><rect x="-37.5" width="450" fill="#ffffff" y="-37.499999" height="449.999989" fill-opacity="1"/><rect x="-37.5" width="450" fill="#f0f0f0" y="-37.499999" height="449.999989" fill-opacity="1"/><g clip-path="url(#ade5c948be)"><path fill="#8f8f8f" d="M 240.085938 227.140625 L 134.90625 227.140625 C 67.207031 227.140625 12.203125 282.144531 12.203125 349.84375 L 12.203125 390.34375 C 12.203125 393.972656 14.621094 396.390625 18.246094 396.390625 L 356.746094 396.390625 C 360.375 396.390625 362.792969 393.972656 362.792969 390.34375 L 362.792969 349.84375 C 362.792969 282.144531 307.785156 227.140625 240.085938 227.140625 Z M 240.085938 227.140625 " fill-opacity="1" fill-rule="nonzero"/></g><g clip-path="url(#29a644ef83)"><path fill="#8f8f8f" d="M 187.496094 202.960938 C 231.019531 202.960938 266.078125 167.902344 266.078125 124.378906 C 266.078125 80.859375 231.019531 45.800781 187.496094 45.800781 C 143.976562 45.800781 108.914062 80.859375 108.914062 124.378906 C 108.914062 167.902344 143.976562 202.960938 187.496094 202.960938 Z M 187.496094 202.960938 " fill-opacity="1" fill-rule="nonzero"/></g></svg>