<svg xmlns="http://www.w3.org/2000/svg" xmlns:xlink="http://www.w3.org/1999/xlink" width="500" zoomAndPan="magnify" viewBox="0 0 375 374.999991" height="500" preserveAspectRatio="xMidYMid meet" version="1.0"><defs><clipPath id="e26d253fe4"><path d="M 93 56.484375 L 282 56.484375 L 282 277 L 93 277 Z M 93 56.484375 " clip-rule="nonzero"/></clipPath></defs><rect x="-37.5" width="450" fill="#ffffff" y="-37.499999" height="449.999989" fill-opacity="1"/><rect x="-37.5" width="450" fill="#f0f0f0" y="-37.499999" height="449.999989" fill-opacity="1"/><g clip-path="url(#e26d253fe4)"><path fill="#8f8f8f" d="M 187.476562 56.484375 C 161.660156 56.484375 145.03125 62.195312 124.671875 72.554688 C 95.574219 89.402344 93.277344 192.777344 93.277344 212.6875 C 93.277344 232.59375 98.632812 255.574219 107.824219 264.761719 C 117.011719 273.953125 127.734375 276.253906 127.734375 276.253906 C 127.734375 276.253906 123.90625 269.359375 129.269531 265.53125 C 134.632812 261.703125 187.476562 265.53125 187.476562 265.53125 C 187.476562 265.53125 240.332031 261.703125 245.691406 265.53125 C 251.050781 269.359375 247.222656 276.253906 247.222656 276.253906 C 247.222656 276.253906 257.945312 273.953125 267.132812 264.761719 C 276.324219 255.574219 281.6875 232.597656 281.6875 212.6875 C 281.6875 192.777344 279.386719 89.402344 250.289062 72.554688 C 229.933594 62.199219 213.296875 56.484375 187.476562 56.484375 Z M 187.476562 56.484375 " fill-opacity="1" fill-rule="nonzero"/></g><path fill="#ffffff" d="M 155.144531 247.742188 C 155.144531 247.742188 155.144531 265.066406 152.492188 277.199219 C 149.835938 289.332031 133.914062 295.015625 133.914062 295.015625 C 137.328125 335.199219 187.476562 318.898438 187.476562 318.898438 C 187.476562 318.898438 237.636719 335.195312 241.042969 295.015625 C 241.042969 295.015625 225.125 289.328125 222.46875 277.199219 C 219.816406 265.066406 219.8125 247.742188 219.8125 247.742188 L 155.140625 247.742188 Z M 155.144531 247.742188 " fill-opacity="1" fill-rule="nonzero"/><path fill="#dadada" d="M 220.367188 261.222656 C 212.390625 272.121094 202.359375 280.933594 189.324219 285.773438 C 188.136719 286.207031 186.808594 286.207031 185.621094 285.773438 C 172.613281 280.933594 162.582031 272.121094 154.609375 261.277344 C 155.148438 253.789062 155.148438 247.730469 155.148438 247.730469 L 219.824219 247.730469 C 219.824219 247.730469 219.824219 253.761719 220.367188 261.222656 Z M 220.367188 261.222656 " fill-opacity="1" fill-rule="nonzero"/><path fill="#8f8f8f" d="M 133.914062 295.015625 C 133.914062 295.015625 114.394531 299.566406 89.75 306.578125 C 69.527344 312.335938 54.304688 316.621094 41.796875 329.132812 C 29.574219 341.355469 19.050781 375.058594 19.050781 375.058594 L 355.90625 375.058594 C 355.90625 375.058594 345.382812 341.355469 333.15625 329.132812 C 320.648438 316.621094 305.425781 312.332031 285.203125 306.578125 C 260.5625 299.566406 241.039062 295.015625 241.039062 295.015625 C 241.039062 295.015625 232.855469 318.898438 187.476562 318.898438 C 142.097656 318.898438 133.910156 295.015625 133.910156 295.015625 Z M 133.914062 295.015625 " fill-opacity="1" fill-rule="nonzero"/><path fill="#ffffff" d="M 187.476562 88.238281 C 187.476562 88.238281 149.894531 87.9375 133.277344 113.996094 C 119.136719 136.160156 125.195312 166.503906 125.195312 166.503906 C 125.195312 166.503906 121.3125 157.535156 112.214844 163.597656 C 103.117188 169.664062 115.703125 191.292969 118.734375 197.359375 C 121.769531 203.421875 124.441406 208.960938 130.507812 202.140625 C 138.714844 227.507812 150.640625 262.5 185.757812 272.917969 C 186.871094 273.246094 188.09375 273.246094 189.207031 272.917969 C 224.324219 262.503906 236.253906 227.507812 244.460938 202.140625 C 250.523438 208.964844 253.199219 203.425781 256.230469 197.359375 C 259.265625 191.292969 271.851562 169.664062 262.75 163.597656 C 253.652344 157.535156 249.765625 166.503906 249.765625 166.503906 C 249.765625 166.503906 255.824219 136.160156 241.683594 113.996094 C 225.066406 87.9375 187.484375 88.238281 187.484375 88.238281 Z M 187.476562 88.238281 " fill-opacity="1" fill-rule="nonzero"/><path fill="#8f8f8f" d="M 216.789062 126.132812 C 216.789062 126.132812 205.84375 145.300781 175.214844 157.550781 C 144.582031 169.804688 133.859375 187.417969 137.691406 200.4375 C 127.738281 169.804688 120.078125 161.382812 118.546875 148.363281 C 117.019531 135.34375 113.191406 92.460938 133.097656 80.972656 C 153.007812 69.488281 197.421875 64.894531 209.675781 67.953125 C 221.925781 71.019531 244.902344 91.695312 247.964844 94.753906 C 251.027344 97.820312 257.15625 137.636719 256.386719 148.359375 C 255.621094 159.078125 253.324219 159.078125 248.730469 168.269531 C 244.136719 177.460938 241.835938 185.117188 241.835938 185.117188 C 241.835938 185.117188 242.546875 171.351562 236.421875 162.164062 C 230.292969 152.972656 223.101562 151.425781 216.789062 126.132812 Z M 216.789062 126.132812 " fill-opacity="1" fill-rule="nonzero"/></svg>